<svg width="23" height="21" viewBox="0 0 23 21" fill="none" xmlns="http://www.w3.org/2000/svg">
<path fill-rule="evenodd" clip-rule="evenodd" d="M11.5 2.83341C13.1137 2.83341 14.5417 3.79471 15.03 5.20976L15.8635 7.62508H15.1458H7.85412H7.13652L7.96996 5.20976C8.45829 3.79471 9.88631 2.83341 11.5 2.83341ZM4.95079 7.62508L5.98433 4.62981C6.74725 2.41878 8.9785 0.916748 11.5 0.916748C14.0215 0.916748 16.2527 2.41878 17.0157 4.62981L18.0492 7.62508H20.5126C21.9105 7.62508 22.9118 8.8667 22.5064 10.0976L21.3353 13.653L19.8896 18.0422C19.4903 19.2545 18.2757 20.0834 16.8989 20.0834H13.5833H9.41662H6.1011C4.72433 20.0834 3.50975 19.2545 3.11048 18.0422L1.66475 13.653L0.493605 10.0976C0.0881863 8.8667 1.08944 7.62508 2.48746 7.62508H4.95079ZM17.287 9.54175H20.5126L19.5656 12.4167H15.629L16.0551 9.54175H17.287ZM13.9525 9.54175L13.5263 12.4167H9.47371L9.04756 9.54175H13.9525ZM6.94495 9.54175L7.371 12.4167H3.43443L2.48746 9.54175H5.71298H6.94495ZM4.06569 14.3334H7.65516L8.22329 18.1667H6.1011C5.64214 18.1667 5.23735 17.8905 5.10423 17.4863L4.06569 14.3334ZM10.3259 18.1667L9.75777 14.3334H13.2422L12.6741 18.1667H10.3259ZM14.7767 18.1667L15.3449 14.3334H18.9343L17.8958 17.4863C17.7627 17.8905 17.3578 18.1667 16.8989 18.1667H14.7767Z" fill="white"/>
</svg>
