<?xml version="1.0" encoding="UTF-8"?> <svg xmlns="http://www.w3.org/2000/svg" width="611" height="504" viewBox="0 0 611 504" fill="none"><path fill-rule="evenodd" clip-rule="evenodd" d="M337.547 369.401C337.53 369.357 337.51 369.314 337.487 369.272L337.175 368.692L345.254 350.658C345.519 350.065 345.254 349.369 344.66 349.103C344.066 348.837 343.37 349.103 343.104 349.696L335.765 366.078L327.495 350.741C327.186 350.169 326.472 349.955 325.9 350.263C325.327 350.572 325.113 351.286 325.422 351.858L334.551 368.788L334.322 369.3C334.307 369.331 334.295 369.363 334.284 369.395L295.256 406.682L294.703 406.393L262.612 446.452C262.273 446.876 261.687 447.013 261.195 446.784L155.535 397.544C154.787 397.195 154.621 396.204 155.215 395.631L160.186 390.83C163.424 387.702 167.752 385.954 172.256 385.954H208.834L227.384 371.316L178.832 346.017L275.905 251.996L210.958 240.551L214.349 221.329L175.838 211.246C175.313 211.109 174.95 210.63 174.959 210.087L176.653 113.131L133.701 128.992C131.648 133.809 128.511 138.607 124.303 143.751C114.672 155.522 103.194 162.116 89.7925 162.116C77.301 162.116 65.5973 155.242 55.457 143.786C46.8881 134.105 42.9829 125.896 42.9829 115.04C42.9829 104.928 46.4442 94.5432 52.2992 86.5109C60.9049 74.7048 74.4378 67.9649 89.7925 67.9649C98.9053 67.9649 107.782 71.7433 116.787 78.4782L129.81 58.272C134.747 50.6115 142.957 45.6695 152.041 44.8899L192.769 41.3944C194.63 41.2347 196.455 41.971 197.684 43.3769C199.813 45.8132 199.563 49.5133 197.126 51.6413L192.989 55.2525C191.988 56.126 191.434 57.4033 191.481 58.7304C191.566 61.1663 193.611 63.072 196.048 62.987L203.344 62.7324C205.182 62.6682 206.933 63.5145 208.025 64.9942C209.851 67.4706 209.323 70.9579 206.845 72.7833L201.468 76.745C200.473 77.4776 199.831 78.5932 199.698 79.8208C199.434 82.244 201.186 84.4217 203.611 84.6849L217.428 86.185C219.648 86.426 221.541 87.9018 222.315 89.9954C223.442 93.0439 221.883 96.4282 218.833 97.5546L195.537 106.157L208.717 133.789L227.597 146.246L232.425 118.882L299.355 146.766L301.26 137.81C301.457 136.884 302.351 136.278 303.285 136.437L375.311 148.742C376.272 148.907 376.919 149.819 376.754 150.78C376.748 150.815 376.748 150.815 376.741 150.849C374.759 160.038 372.901 168.65 371.168 176.685L371.29 176.736L405.957 227.518C400.157 224.481 392.953 225.54 388.274 230.311C384.804 233.849 382.077 237.104 380.091 240.078C376.582 245.335 373.961 249.261 372.23 251.856L387.282 254.894C387.344 254.761 387.433 254.637 387.547 254.53C389.693 252.529 392.061 249.479 394.636 245.385C397.306 241.138 401.492 235.987 407.199 229.917C407.645 229.443 408.39 229.42 408.864 229.865C409.338 230.31 409.361 231.055 408.916 231.528C403.304 237.498 399.207 242.539 396.63 246.638C394.273 250.385 392.062 253.318 389.984 255.44L403.438 258.155C403.471 258.046 403.52 257.94 403.586 257.84C406.361 253.651 409.089 250.084 411.773 247.138C414.421 244.231 417.412 241.04 420.746 237.563C421.196 237.094 421.942 237.078 422.411 237.528C422.881 237.977 422.897 238.722 422.447 239.192C419.126 242.655 416.148 245.832 413.514 248.722C411.022 251.459 408.475 254.767 405.877 258.648L413.466 260.179C410.977 259.22 409.892 257.434 410.603 255.127C410.794 254.506 411.453 254.157 412.075 254.348C412.696 254.54 413.045 255.198 412.854 255.819C412.526 256.884 412.942 257.519 414.543 258.067C416.165 258.622 417.024 258.334 417.581 257.168C417.861 256.581 418.564 256.333 419.151 256.613C419.738 256.893 419.987 257.596 419.706 258.182C418.919 259.83 417.614 260.667 415.959 260.683L419.31 261.359C419.206 260.931 419.349 260.462 419.714 260.166L435.126 247.711C435.632 247.303 436.373 247.381 436.782 247.887C437.191 248.392 437.113 249.133 436.607 249.542L421.449 261.791L431.535 263.827L428.884 275.387V275.839L454.425 280.963L454.171 280.431L515.955 291.755L495.4 337.285L502.851 341.288C507.816 343.956 514.005 342.141 516.74 337.214C525.706 321.063 534.42 305.578 542.88 290.76C551.921 274.927 558.73 257.288 563.306 237.841C564.301 233.61 562.531 229.21 558.883 226.845L535.898 211.943C535.352 211.59 535.197 210.861 535.551 210.316C535.905 209.77 536.634 209.615 537.18 209.969L560.165 224.87C564.647 227.776 566.821 233.182 565.598 238.38C560.972 258.042 554.082 275.892 544.926 291.927C536.47 306.736 527.761 322.213 518.799 338.356C515.439 344.409 507.836 346.639 501.735 343.362L494.429 339.436L479.837 371.76C476.992 378.063 470.454 381.862 463.565 381.216L337.547 369.401ZM291.509 404.729L229.673 372.509L211.491 386.856L231.296 395.815C231.888 396.083 232.151 396.781 231.883 397.373C231.615 397.965 230.917 398.228 230.324 397.96L208.989 388.307H172.256C168.363 388.307 164.622 389.819 161.822 392.523L158.083 396.134L249.399 438.689C260.056 428.398 269.509 423.209 277.817 423.209C277.94 423.209 278.06 423.228 278.171 423.263L292.516 405.356L291.509 404.729ZM214.76 219.004L227.151 148.772L207.146 135.573C206.967 135.455 206.824 135.29 206.732 135.097L192.3 104.84C190.683 101.449 187.852 98.7879 184.366 97.382L179.319 95.3461L178.107 164.755C178.423 164.509 178.856 164.43 179.257 164.585C194.909 170.635 200.822 187.358 197.168 214.397H197.168L214.76 219.004ZM488.428 160.644C489.209 160.858 490.014 160.971 490.842 160.985C493.364 161.029 495.693 160.151 497.865 158.312C495.758 156.4 493.461 155.44 490.94 155.396C489.624 155.373 488.361 155.601 487.145 156.086C487.367 156.077 487.593 156.1 487.818 156.16C489.074 156.497 489.803 157.851 489.445 159.185C489.278 159.806 488.906 160.313 488.428 160.644ZM484.809 158.814C484.792 158.537 484.819 158.251 484.895 157.967C484.996 157.59 485.173 157.255 485.403 156.976C484.899 157.293 484.404 157.657 483.917 158.069C484.21 158.336 484.508 158.584 484.809 158.814ZM482.999 145.73L478.431 147.761C477.017 149.292 475.916 151.151 475.258 153.261L467.764 177.307C472.704 180.542 477.905 182.931 483.371 184.477C488.854 186.029 495.453 186.637 503.164 186.293L504.092 176.84C504.165 176.09 504.915 175.601 505.631 175.836C505.901 175.925 506.178 175.997 506.461 176.052C510.132 176.765 513.686 174.369 514.4 170.7C515.113 167.032 512.716 163.48 509.045 162.766C508.336 162.629 507.622 162.605 506.922 162.691C506.24 162.775 505.646 162.264 505.602 161.604C501.53 157.073 498.487 153.735 496.475 151.59C494.585 149.576 492.312 147.131 489.656 144.254C482.65 147.373 478.262 153.779 476.464 163.607L482.951 164.867C483.589 164.991 484.006 165.609 483.882 166.247C483.758 166.885 483.14 167.301 482.501 167.177L474.885 165.698C474.262 165.577 473.847 164.984 473.946 164.358C475.26 156.095 478.282 149.866 482.999 145.73ZM497.654 142.835C504.107 146.086 508.272 152.849 508.039 160.292C508.525 160.307 509.011 160.362 509.495 160.456C514.442 161.417 517.674 166.205 516.712 171.15C515.769 175.997 511.147 179.196 506.304 178.414L505.529 186.305C514.513 184.92 521.641 180.528 525.622 173.154C531.768 161.768 534.384 151.152 534.1 141.279C533.882 133.679 531.993 126.99 528.929 120.92C526.451 116.011 519.103 109.88 510.755 106.169C500.808 101.748 490.774 101.113 482.467 105.227C473.102 109.865 463.013 120.383 456.926 132.002C450.177 144.886 449.149 157.221 455.04 166.094C457.51 169.815 461.18 173.299 465.609 176.309L473.01 152.561C474.929 146.401 480.099 142.087 486.106 141.011C483.137 138.798 482.183 134.679 484.023 131.346C485.016 129.548 486.667 128.281 488.554 127.743C486.849 125.821 486.418 122.971 487.685 120.563C488.971 118.12 491.687 116.784 494.409 117.258L498.998 118.057C502.291 118.631 504.495 121.764 503.921 125.055C503.92 125.062 503.919 125.068 503.917 125.075C503.528 127.265 502.064 129.005 500.155 129.834C502.337 131.415 503.53 134.166 502.987 136.986C502.986 136.994 502.984 137.001 502.983 137.009C502.421 139.88 500.299 142.065 497.654 142.835ZM517.329 77.4433L509.633 103.147V103.147C510.326 103.42 511.02 103.711 511.713 104.019C520.518 107.933 528.281 114.41 531.032 119.86C534.243 126.221 536.226 133.242 536.454 141.212C536.75 151.504 534.034 162.528 527.695 174.271C521.124 186.444 506.898 191.106 490.059 188.385C474.717 185.906 459.831 177.567 453.077 167.395C446.631 157.686 447.732 144.479 454.84 130.911C461.146 118.872 471.585 107.99 481.421 103.118C489.209 99.2609 498.292 99.2454 507.417 102.336L515.066 76.7897C514.463 76.4656 513.954 76.0434 513.645 75.5714C512.474 73.7867 514.437 70.8373 516.111 69.997C517.784 69.1567 519.906 70.5642 520.338 71.4322C520.77 72.3003 521.241 73.9297 520.036 76.1791C519.512 77.159 518.453 77.5085 517.329 77.4433ZM490.801 163.339C487.273 163.277 484.106 161.762 481.351 158.847C480.912 158.382 480.924 157.651 481.38 157.202C484.235 154.385 487.453 152.981 490.981 153.043C494.509 153.104 497.676 154.62 500.43 157.534C500.87 157.999 500.857 158.73 500.402 159.18C497.547 161.996 494.329 163.4 490.801 163.339ZM477.302 169.779C476.782 169.388 476.678 168.65 477.069 168.131C477.46 167.612 478.199 167.507 478.718 167.898C479.951 168.825 481.648 169.1 483.885 168.67C484.524 168.547 485.141 168.965 485.264 169.603C485.387 170.241 484.969 170.858 484.33 170.981C481.486 171.528 479.118 171.145 477.302 169.779ZM251.689 439.756L261.352 444.259L276.276 425.629C269.203 426.229 260.992 430.916 251.689 439.756ZM194.872 213.796C198.319 187.888 192.774 172.334 178.407 166.78C178.283 166.732 178.171 166.665 178.075 166.584L177.33 209.204L194.872 213.796ZM89.7925 159.762C102.409 159.762 113.261 153.528 122.479 142.261C130.336 132.658 134.247 124.442 134.247 115.04C134.247 101.579 128.235 90.4606 117.05 81.6485C107.83 74.3852 98.8636 70.3187 89.7925 70.3187C75.1835 70.3187 62.3609 76.7048 54.2029 87.8968C48.6381 95.531 45.3381 105.432 45.3381 115.04C45.3381 125.241 49.0001 132.939 57.221 142.227C66.9563 153.225 78.0867 159.762 89.7925 159.762ZM146.131 236.204L139.243 269.225L158.805 283.476L133.856 286.417L114.343 309.082L117.59 280.924L99.046 265.607L125.208 265.488L146.131 236.204ZM68.0046 364.329L87.7182 390.497L108.786 387.192L95.0683 404.517L97.0232 430.708L81.5101 411.211L60.4132 413.222L76.6442 396.896L68.0046 364.329ZM594.94 66.1319L617.796 95.3826L642.591 91.4105L626.267 111.091L628.255 140.578L610.257 118.794L585.443 121.308L604.708 102.723L594.94 66.1319ZM664.397 212.622L655.901 244.258L671.477 258.815L649.372 258.678L629.923 276.342L635.746 252.122L621.172 236.745L644.037 239.477L664.397 212.622ZM643.196 393.426C642.618 392.828 642 392.261 641.341 391.737C662.543 380.774 678.865 372.102 682.323 369.764C693.027 362.526 693.541 349.496 683.195 342.794C676.179 338.25 660.333 341.086 635.911 351.549L622.924 358.385C628.59 362.259 632.864 366.651 634.738 370.288C637.337 375.328 640.049 382.386 640.741 391.28C637.582 388.985 633.538 387.712 628.488 388.82C612.802 392.262 608.065 403.823 592.703 397.156C577.34 390.49 576.08 380.742 560.207 384.027C554.881 385.129 550.77 385.957 547.874 386.512C554.659 371.462 567.687 357.633 579.619 351.849C593.255 345.238 609.241 349.843 620.664 356.914L634.855 349.445C634.882 349.43 634.911 349.417 634.939 349.405C660.106 338.618 676.533 335.674 684.476 340.819C696.291 348.472 695.696 363.564 683.643 371.713C680.171 374.061 664.113 382.603 643.196 393.426ZM639.374 409.094C637.913 415.599 635.304 422.707 631.108 430.38C618.775 452.93 583.24 448.866 561.432 434.891C538.223 446.433 519.936 455.273 516.133 456.568C504.59 460.498 494.898 451.656 492.907 437.567C491.626 428.505 505.562 416.925 534.655 402.187L542.087 398.275L541.991 399.657C552.093 394.778 559.695 393.18 564.797 394.866C572.45 397.394 593.409 413.688 606.676 409.139C619.365 404.788 635.119 397.942 639.374 409.094ZM559.186 433.382C554.513 430.09 550.598 426.328 547.862 422.284C543.45 415.767 542.403 408.047 543.667 400.104L535.745 404.274L535.728 404.282C507.651 418.504 494.174 429.703 495.239 437.238C496.09 443.258 498.56 448.468 502.086 451.685C505.762 455.039 510.344 456.053 515.373 454.34C519.039 453.092 536.656 444.58 559.186 433.382ZM635.952 351.528L635.868 351.568C635.882 351.562 635.896 351.556 635.911 351.549L635.952 351.528ZM400.046 83.7512L401.971 84.6399C402.016 84.6369 402.062 84.6366 402.108 84.6389C405.316 84.2405 407.048 82.9337 407.568 80.6817C408.108 78.3419 407.026 76.3461 404.071 74.5274C403.998 74.4824 403.932 74.4307 403.872 74.3736L382.439 64.57C382.224 64.472 382.054 64.3178 381.936 64.1328C381.936 64.1328 381.935 64.1328 381.935 64.1328C379.054 64.0951 377.431 65.256 376.764 67.7808C376.035 70.5382 376.96 72.6008 379.713 74.2374C379.897 74.3468 380.035 74.49 380.13 74.6509C380.28 74.657 380.431 74.692 380.575 74.7588L399.574 83.5331C397.483 82.1847 397.033 80.0258 398.209 77.4949C399.416 74.8975 401.37 73.891 403.682 74.8772C404.28 75.1323 404.558 75.8237 404.303 76.4215C404.048 77.0193 403.356 77.2972 402.758 77.0421C401.732 76.6048 401.058 76.9523 400.345 78.4862C399.623 80.0405 399.82 80.9241 400.922 81.5998C401.476 81.9398 401.65 82.6644 401.31 83.2184C401.039 83.6593 400.525 83.8593 400.046 83.7512ZM401.582 87.0535L379.587 76.8954C379.375 76.7977 379.207 76.6451 379.09 76.4625C376.149 77.1891 374.41 78.8708 373.722 81.6133C373.232 83.5665 373.378 85.2612 374.141 86.7494C374.681 87.8033 375.558 88.646 376.634 89.1428L382.919 92.0469C382.988 92.0611 383.057 92.0816 383.125 92.1089L396.131 97.3506C399.54 97.6308 401.719 96.5559 402.919 94.0956C404.071 91.736 403.664 89.4527 401.582 87.0535ZM387.349 96.3494L385.089 115.811L413.522 111.338C417.706 110.68 420.936 107.312 421.417 103.106L428.055 45.052C423.774 41.5006 423.907 36.9302 428.325 31.9047C427.526 30.9758 426.294 30.4466 424.984 30.5972C420.938 31.0622 418.57 33.1564 417.669 37.0557C417.322 38.557 415.667 44.708 412.686 55.573C412.523 56.1698 411.924 56.5379 411.318 56.4155L398.825 53.8944L408.228 58.7912C408.26 58.808 408.292 58.8263 408.322 58.846C412.043 61.2457 413.592 64.3419 412.758 67.9508C412.077 70.9011 410.114 72.8458 407.019 73.7452C409.526 75.8396 410.521 78.3603 409.863 81.2112C409.218 84.0024 407.287 85.8145 404.229 86.6251C406.142 89.3773 406.438 92.2557 405.036 95.1274C403.357 98.5677 400.171 100.096 395.743 99.6793C395.629 99.6686 395.518 99.6416 395.412 99.599L387.349 96.3494ZM390.551 52.2245L386.471 51.4012C386.445 51.3961 386.42 51.3943 386.394 51.3959C382.4 51.6474 380.285 53.0682 379.712 55.6846C379.15 58.2488 380.065 60.2783 382.606 61.978C382.752 62.076 382.866 62.1937 382.95 62.3229C383.107 62.3256 383.267 62.3601 383.419 62.4297L404.193 71.9319C404.288 71.8932 404.39 71.8664 404.497 71.8536C407.972 71.4374 409.871 69.9843 410.463 67.4213C411.052 64.8714 409.997 62.7422 407.09 60.8529L390.701 52.3177C390.648 52.2899 390.598 52.2588 390.551 52.2245ZM429.248 34.4824C426.938 37.4896 426.674 39.9377 428.395 42.0788L429.224 34.8313C429.237 34.7153 429.245 34.5989 429.248 34.4824ZM430.54 44.0507C430.83 44.4479 430.849 45.0011 430.549 45.4243C430.493 45.5031 430.429 45.573 430.359 45.6337L423.757 103.374C423.156 108.631 419.118 112.84 413.888 113.663L383.924 118.377C383.154 118.498 382.481 117.852 382.571 117.079L385.062 95.6299L375.645 91.2793C374.092 90.5617 372.824 89.3445 372.044 87.8222C371.01 85.8041 370.814 83.5264 371.437 81.0411C372.175 78.0983 373.917 76.0101 376.58 74.834C374.411 72.8121 373.684 70.2151 374.487 67.1796C375.19 64.5181 376.794 62.8102 379.174 62.1228C377.438 60.1822 376.829 57.8396 377.411 55.1814C378.237 51.4123 381.294 49.3586 386.246 49.0468C386.477 49.0322 386.71 49.0481 386.937 49.094L410.706 53.8907C413.488 43.7387 415.05 37.9312 415.374 36.5262C416.5 31.6517 419.684 28.8372 424.715 28.2588C428.107 27.8689 431.173 30.301 431.564 33.691C431.617 34.1586 431.618 34.6309 431.564 35.0985L430.54 44.0507ZM404.341 68.3267C404.843 68.7405 404.914 69.4822 404.5 69.9835C404.086 70.4848 403.344 70.5559 402.842 70.1421C400.861 68.5078 400.682 66.2698 402.226 63.8844C403.783 61.4801 405.858 60.7553 408.011 62.0534C408.568 62.3892 408.747 63.1126 408.411 63.6691C408.075 64.2256 407.351 64.4045 406.794 64.0687C405.84 63.493 405.123 63.7434 404.204 65.1632C403.272 66.6019 403.344 67.5043 404.341 68.3267ZM396.301 93.9476C396.831 94.3254 396.953 95.0604 396.575 95.5893C396.197 96.1183 395.462 96.2409 394.933 95.8631C392.842 94.3709 392.507 92.1508 393.881 89.6635C395.267 87.1566 397.286 86.2888 399.524 87.4338C400.103 87.7299 400.332 88.4391 400.036 89.0176C399.74 89.5962 399.03 89.8251 398.451 89.529C397.459 89.0213 396.761 89.3209 395.943 90.8014C395.114 92.3016 395.249 93.1967 396.301 93.9476ZM355.216 250.634C354.185 255.416 353.522 258.491 353.227 259.859L426.584 274.244L428.629 266.033L355.216 250.634ZM333.015 255.896L350.844 259.392L352.847 250.137L282.898 235.465L280.99 244.436L333.015 255.896ZM353.5 247.12L374.31 150.959L303.446 138.853L283.391 233.148L353.5 247.12ZM330.921 184.817C332.778 185.713 334.387 187.098 335.024 188.363C336.728 191.75 336.841 195.754 334.321 200.43C332.752 203.343 329.429 204.436 325.616 203.82C322.224 203.272 318.933 201.425 317.39 199.094C315.847 196.763 316.103 193.698 317.706 190.632C319.09 187.986 321.374 185.6 323.582 184.503C324.454 184.069 325.388 183.839 326.35 183.792L323.782 178.48C323.499 177.895 323.744 177.191 324.33 176.908C324.916 176.626 325.62 176.871 325.903 177.456L327.859 181.503L328.482 177.569C328.584 176.927 329.187 176.489 329.83 176.591C330.472 176.693 330.91 177.296 330.808 177.937L330.133 182.201L333.407 178.662C333.849 178.184 334.594 178.155 335.071 178.597C335.549 179.038 335.578 179.782 335.137 180.26L330.921 184.817ZM329.643 186.818C327.835 186.013 326.057 185.901 324.63 186.61C322.893 187.473 320.958 189.495 319.794 191.722C318.548 194.105 318.365 196.3 319.354 197.795C320.502 199.529 323.206 201.046 325.991 201.496C328.913 201.968 331.228 201.206 332.247 199.314C334.384 195.349 334.294 192.151 332.92 189.42C332.519 188.625 331.175 187.501 329.643 186.818ZM386.274 248.987C386.502 248.378 387.181 248.07 387.79 248.298C388.399 248.526 388.708 249.204 388.48 249.813C387.579 252.217 385.52 253.115 382.76 252.432C379.978 251.744 378.617 250.019 379.144 247.562C379.281 246.926 379.907 246.522 380.543 246.658C381.179 246.794 381.584 247.42 381.447 248.056C381.213 249.145 381.684 249.741 383.326 250.147C384.991 250.559 385.821 250.197 386.274 248.987ZM401.649 253.09C401.877 252.481 402.555 252.172 403.164 252.4C403.773 252.628 404.082 253.306 403.854 253.915C402.953 256.32 400.894 257.218 398.134 256.535C395.353 255.846 393.991 254.121 394.519 251.664C394.655 251.029 395.281 250.624 395.917 250.761C396.553 250.897 396.958 251.523 396.822 252.158C396.588 253.248 397.058 253.843 398.7 254.25C400.365 254.662 401.195 254.3 401.649 253.09Z" fill="#5E2340"></path><path fill-rule="evenodd" clip-rule="evenodd" d="M405.816 227.445L404.363 225.179L370.731 176.736L375.718 150.006L373.373 148.579L377.448 112.947C377.719 110.581 379.622 108.733 381.997 108.531L424.809 104.893V166.859L460.859 187.957L465.028 178.723C474.247 183.664 480.885 186.526 484.942 187.311C488.235 187.947 492.832 189.136 499.912 189.136C501.091 189.136 502.884 188.994 505.292 188.709L504.75 195.704L536.219 201.682C541.639 202.712 546.057 206.628 547.726 211.883L572.655 290.352C574.721 296.857 571.12 303.804 564.611 305.869C562.45 306.555 560.142 306.634 557.939 306.096L454.369 280.842L443.336 257.757C441.102 253.083 437.673 249.081 433.396 246.156L407.477 228.431C406.938 228.063 406.384 227.734 405.816 227.445ZM482.524 238.981C481.886 238.854 481.267 239.269 481.14 239.906C481.014 240.544 481.428 241.163 482.066 241.289L504.865 245.807C505.758 245.984 506.506 245.125 506.206 244.266L498.555 222.338C498.341 221.724 497.669 221.4 497.055 221.614C496.441 221.828 496.117 222.499 496.331 223.113L503.304 243.099L482.524 238.981Z" fill="white"></path></svg> 